# xmcd CD database file
#
# Track frame offsets:
#	150
#	20354
#	40759
#	61745
#	77142
#	100066
#	122100
#	146537
#	170608
#	183805
#	208502
#
# Disc length: 3092 seconds
#
# Revision: 0
# Processed by: cddbd v1.5.2PL0 Copyright (c) Steve Scherf et al.
# Submitted via: CDex 1.70beta2
#
DISCID=890c120b
DTITLE=Dag Arnesen Trio - Norwegian Song
DYEAR=2007
DGENRE=Jazz
TTITLE0=Ved Rondane
TTITLE1=Ola, Ola, min eigen unge
TTITLE2=Margit Hjukse
TTITLE3=Arietta
TTITLE4=Eg ser deg ut før gluggjin
TTITLE5=Aagots fjeldsang
TTITLE6=Håvar Hedde
TTITLE7=Gjendines bådnlåt
TTITLE8=Den norske dalevise
TTITLE9=Falkvor Lomansson
TTITLE10=Seterjentens søndag
EXTD=YEAR: 2007
EXTT0=
EXTT1=
EXTT2=
EXTT3=
EXTT4=
EXTT5=
EXTT6=
EXTT7=
EXTT8=
EXTT9=
EXTT10=
PLAYORDER=
